<svg width="153" height="16" viewBox="0 0 153 16" fill="none" xmlns="http://www.w3.org/2000/svg">
<path d="M6.57227 7.08008H10.4785V8.81836H6.57227V12.7637H4.83398V8.81836H0.9375V7.08008H4.83398V3.0957H6.57227V7.08008ZM21.9922 6.80664C21.9922 7.65299 21.9303 8.48307 21.8066 9.29688C21.6895 10.1107 21.4811 10.8724 21.1816 11.582C20.8887 12.2917 20.4818 12.9199 19.9609 13.4668C19.4466 14.0072 18.7956 14.4303 18.0078 14.7363C17.2201 15.0423 16.2695 15.1953 15.1562 15.1953C14.8763 15.1953 14.5508 15.179 14.1797 15.1465C13.8151 15.1204 13.5156 15.0814 13.2812 15.0293V13.1152C13.5286 13.1868 13.8053 13.2454 14.1113 13.291C14.4238 13.3301 14.7331 13.3496 15.0391 13.3496C16.2435 13.3496 17.181 13.125 17.8516 12.6758C18.5286 12.2266 19.0072 11.6081 19.2871 10.8203C19.5736 10.0326 19.7363 9.13737 19.7754 8.13477H19.6582C19.4694 8.44727 19.2318 8.73372 18.9453 8.99414C18.6589 9.24805 18.304 9.45312 17.8809 9.60938C17.4577 9.75911 16.9434 9.83398 16.3379 9.83398C15.5176 9.83398 14.8014 9.66146 14.1895 9.31641C13.584 8.97135 13.112 8.47005 12.7734 7.8125C12.4414 7.14844 12.2754 6.35091 12.2754 5.41992C12.2754 4.41081 12.4674 3.54167 12.8516 2.8125C13.2357 2.08333 13.7793 1.52344 14.4824 1.13281C15.1855 0.735677 16.0124 0.537109 16.9629 0.537109C17.679 0.537109 18.3398 0.667318 18.9453 0.927734C19.5573 1.18164 20.0911 1.57227 20.5469 2.09961C21.0026 2.62044 21.3574 3.27474 21.6113 4.0625C21.8652 4.84375 21.9922 5.75846 21.9922 6.80664ZM16.9922 2.43164C16.2695 2.43164 15.6803 2.67578 15.2246 3.16406C14.7689 3.64583 14.541 4.38802 14.541 5.39062C14.541 6.20443 14.7363 6.84896 15.127 7.32422C15.5176 7.79948 16.1165 8.03711 16.9238 8.03711C17.4837 8.03711 17.9655 7.92318 18.3691 7.69531C18.7793 7.46094 19.0951 7.16471 19.3164 6.80664C19.5443 6.44857 19.6582 6.08398 19.6582 5.71289C19.6582 5.32878 19.6029 4.94466 19.4922 4.56055C19.388 4.17643 19.2253 3.82487 19.0039 3.50586C18.7826 3.18685 18.5026 2.92969 18.1641 2.73438C17.832 2.53255 17.4414 2.43164 16.9922 2.43164ZM30.5371 15H28.2324V5.81055C28.2324 5.50456 28.2357 5.19857 28.2422 4.89258C28.2487 4.58659 28.2552 4.28711 28.2617 3.99414C28.2747 3.70117 28.291 3.42122 28.3105 3.1543C28.1738 3.30404 28.0046 3.4668 27.8027 3.64258C27.6074 3.81836 27.3991 4.00065 27.1777 4.18945L25.5371 5.49805L24.3848 4.04297L28.623 0.722656H30.5371V15ZM45.2441 0.527344C46.071 0.527344 46.8164 0.657552 47.4805 0.917969C48.1445 1.17188 48.6719 1.55273 49.0625 2.06055C49.4531 2.56836 49.6484 3.19661 49.6484 3.94531C49.6484 4.52474 49.528 5.0293 49.2871 5.45898C49.0527 5.88867 48.7337 6.26628 48.3301 6.5918C47.9264 6.91081 47.474 7.19401 46.9727 7.44141C47.5326 7.71484 48.0469 8.0306 48.5156 8.38867C48.9909 8.74023 49.3717 9.15365 49.6582 9.62891C49.9512 10.1042 50.0977 10.6608 50.0977 11.2988C50.0977 12.0996 49.8926 12.793 49.4824 13.3789C49.0788 13.9583 48.5156 14.4076 47.793 14.7266C47.0703 15.0391 46.2272 15.1953 45.2637 15.1953C44.2285 15.1953 43.3464 15.0423 42.6172 14.7363C41.888 14.4303 41.3346 13.9941 40.957 13.4277C40.5794 12.8548 40.3906 12.1712 40.3906 11.377C40.3906 10.7194 40.5208 10.1497 40.7812 9.66797C41.0417 9.1862 41.39 8.76953 41.8262 8.41797C42.2689 8.06641 42.7539 7.77018 43.2812 7.5293C42.832 7.26237 42.4219 6.96289 42.0508 6.63086C41.6797 6.29232 41.3835 5.90495 41.1621 5.46875C40.9473 5.02604 40.8398 4.51497 40.8398 3.93555C40.8398 3.19336 41.0384 2.57161 41.4355 2.07031C41.8327 1.5625 42.3633 1.17839 43.0273 0.917969C43.6979 0.657552 44.4368 0.527344 45.2441 0.527344ZM42.5781 11.2891C42.5781 11.9141 42.7995 12.4284 43.2422 12.832C43.6849 13.2357 44.3457 13.4375 45.2246 13.4375C46.097 13.4375 46.7611 13.2389 47.2168 12.8418C47.6725 12.4447 47.9004 11.9206 47.9004 11.2695C47.9004 10.8529 47.7832 10.485 47.5488 10.166C47.321 9.84701 47.0117 9.5638 46.6211 9.31641C46.237 9.0625 45.8105 8.82812 45.3418 8.61328L45.0293 8.48633C44.5215 8.70117 44.0853 8.94531 43.7207 9.21875C43.3561 9.48568 43.0729 9.78841 42.8711 10.127C42.6758 10.4655 42.5781 10.8529 42.5781 11.2891ZM45.2246 2.29492C44.5931 2.29492 44.0723 2.45117 43.6621 2.76367C43.2585 3.06966 43.0566 3.51237 43.0566 4.0918C43.0566 4.50195 43.1543 4.85352 43.3496 5.14648C43.5514 5.43945 43.8216 5.69336 44.1602 5.9082C44.4987 6.11654 44.873 6.31185 45.2832 6.49414C45.6803 6.31836 46.0384 6.1263 46.3574 5.91797C46.6829 5.70312 46.9401 5.44922 47.1289 5.15625C47.3242 4.85677 47.4219 4.4987 47.4219 4.08203C47.4219 3.50911 47.2168 3.06966 46.8066 2.76367C46.403 2.45117 45.8757 2.29492 45.2246 2.29492ZM51.8945 8.91602C51.8945 8.07617 51.9531 7.24935 52.0703 6.43555C52.194 5.62174 52.4023 4.86003 52.6953 4.15039C52.9883 3.44076 53.3919 2.81576 53.9062 2.27539C54.4271 1.73503 55.0814 1.31185 55.8691 1.00586C56.6569 0.693359 57.6042 0.537109 58.7109 0.537109C58.9974 0.537109 59.3197 0.55013 59.6777 0.576172C60.0358 0.602214 60.332 0.644531 60.5664 0.703125V2.60742C60.3125 2.53581 60.0326 2.48047 59.7266 2.44141C59.4271 2.40234 59.1276 2.38281 58.8281 2.38281C57.6302 2.38281 56.696 2.61068 56.0254 3.06641C55.3548 3.51562 54.8763 4.13411 54.5898 4.92188C54.3034 5.70312 54.1374 6.59831 54.0918 7.60742H54.209C54.4043 7.2819 54.6484 6.99219 54.9414 6.73828C55.2344 6.48438 55.5924 6.28255 56.0156 6.13281C56.4388 5.97656 56.9303 5.89844 57.4902 5.89844C58.3236 5.89844 59.0495 6.07422 59.668 6.42578C60.2865 6.77083 60.7617 7.27214 61.0938 7.92969C61.4323 8.58724 61.6016 9.38477 61.6016 10.3223C61.6016 11.3314 61.4095 12.2005 61.0254 12.9297C60.6478 13.6589 60.1074 14.2188 59.4043 14.6094C58.7077 15 57.8776 15.1953 56.9141 15.1953C56.2044 15.1953 55.5436 15.0651 54.9316 14.8047C54.3262 14.5443 53.7956 14.1536 53.3398 13.6328C52.8841 13.112 52.5293 12.4609 52.2754 11.6797C52.0215 10.8919 51.8945 9.9707 51.8945 8.91602ZM56.875 13.3008C57.6172 13.3008 58.2129 13.0599 58.6621 12.5781C59.1178 12.0898 59.3457 11.3444 59.3457 10.3418C59.3457 9.52799 59.1439 8.88346 58.7402 8.4082C58.3431 7.93294 57.7441 7.69531 56.9434 7.69531C56.3965 7.69531 55.918 7.8125 55.5078 8.04688C55.0977 8.28125 54.7786 8.57747 54.5508 8.93555C54.3294 9.29362 54.2188 9.6582 54.2188 10.0293C54.2188 10.4069 54.2741 10.7878 54.3848 11.1719C54.4954 11.556 54.6615 11.9108 54.8828 12.2363C55.1042 12.5553 55.3809 12.8125 55.7129 13.0078C56.0449 13.2031 56.4323 13.3008 56.875 13.3008ZM68.1738 6.07422C69.0918 6.07422 69.8991 6.24023 70.5957 6.57227C71.2988 6.89779 71.8457 7.37956 72.2363 8.01758C72.627 8.64909 72.8223 9.42383 72.8223 10.3418C72.8223 11.3444 72.6107 12.2103 72.1875 12.9395C71.7643 13.6621 71.1426 14.2188 70.3223 14.6094C69.502 15 68.5026 15.1953 67.3242 15.1953C66.5755 15.1953 65.8757 15.1302 65.2246 15C64.5801 14.8698 64.0234 14.6745 63.5547 14.4141V12.3438C64.043 12.6172 64.6289 12.8418 65.3125 13.0176C65.9961 13.1868 66.6504 13.2715 67.2754 13.2715C67.9395 13.2715 68.5091 13.1738 68.9844 12.9785C69.4596 12.7832 69.8242 12.4837 70.0781 12.0801C70.3385 11.6764 70.4688 11.1654 70.4688 10.5469C70.4688 9.72656 70.2051 9.09505 69.6777 8.65234C69.1569 8.20312 68.3398 7.97852 67.2266 7.97852C66.8359 7.97852 66.4193 8.01432 65.9766 8.08594C65.5404 8.15104 65.1758 8.22266 64.8828 8.30078L63.877 7.70508L64.4141 0.722656H71.8359V2.74414H66.4355L66.123 6.29883C66.3574 6.24674 66.6374 6.19792 66.9629 6.15234C67.2884 6.10026 67.6921 6.07422 68.1738 6.07422ZM79.6191 6.07422C80.5371 6.07422 81.3444 6.24023 82.041 6.57227C82.7441 6.89779 83.291 7.37956 83.6816 8.01758C84.0723 8.64909 84.2676 9.42383 84.2676 10.3418C84.2676 11.3444 84.056 12.2103 83.6328 12.9395C83.2096 13.6621 82.5879 14.2188 81.7676 14.6094C80.9473 15 79.9479 15.1953 78.7695 15.1953C78.0208 15.1953 77.321 15.1302 76.6699 15C76.0254 14.8698 75.4688 14.6745 75 14.4141V12.3438C75.4883 12.6172 76.0742 12.8418 76.7578 13.0176C77.4414 13.1868 78.0957 13.2715 78.7207 13.2715C79.3848 13.2715 79.9544 13.1738 80.4297 12.9785C80.9049 12.7832 81.2695 12.4837 81.5234 12.0801C81.7839 11.6764 81.9141 11.1654 81.9141 10.5469C81.9141 9.72656 81.6504 9.09505 81.123 8.65234C80.6022 8.20312 79.7852 7.97852 78.6719 7.97852C78.2812 7.97852 77.8646 8.01432 77.4219 8.08594C76.9857 8.15104 76.6211 8.22266 76.3281 8.30078L75.3223 7.70508L75.8594 0.722656H83.2812V2.74414H77.8809L77.5684 6.29883C77.8027 6.24674 78.0827 6.19792 78.4082 6.15234C78.7337 6.10026 79.1374 6.07422 79.6191 6.07422ZM95.8594 6.80664C95.8594 7.65299 95.7975 8.48307 95.6738 9.29688C95.5566 10.1107 95.3483 10.8724 95.0488 11.582C94.7559 12.2917 94.349 12.9199 93.8281 13.4668C93.3138 14.0072 92.6628 14.4303 91.875 14.7363C91.0872 15.0423 90.1367 15.1953 89.0234 15.1953C88.7435 15.1953 88.418 15.179 88.0469 15.1465C87.6823 15.1204 87.3828 15.0814 87.1484 15.0293V13.1152C87.3958 13.1868 87.6725 13.2454 87.9785 13.291C88.291 13.3301 88.6003 13.3496 88.9062 13.3496C90.1107 13.3496 91.0482 13.125 91.7188 12.6758C92.3958 12.2266 92.8743 11.6081 93.1543 10.8203C93.4408 10.0326 93.6035 9.13737 93.6426 8.13477H93.5254C93.3366 8.44727 93.099 8.73372 92.8125 8.99414C92.526 9.24805 92.1712 9.45312 91.748 9.60938C91.3249 9.75911 90.8105 9.83398 90.2051 9.83398C89.3848 9.83398 88.6686 9.66146 88.0566 9.31641C87.4512 8.97135 86.9792 8.47005 86.6406 7.8125C86.3086 7.14844 86.1426 6.35091 86.1426 5.41992C86.1426 4.41081 86.3346 3.54167 86.7188 2.8125C87.1029 2.08333 87.6465 1.52344 88.3496 1.13281C89.0527 0.735677 89.8796 0.537109 90.8301 0.537109C91.5462 0.537109 92.207 0.667318 92.8125 0.927734C93.4245 1.18164 93.9583 1.57227 94.4141 2.09961C94.8698 2.62044 95.2246 3.27474 95.4785 4.0625C95.7324 4.84375 95.8594 5.75846 95.8594 6.80664ZM90.8594 2.43164C90.1367 2.43164 89.5475 2.67578 89.0918 3.16406C88.6361 3.64583 88.4082 4.38802 88.4082 5.39062C88.4082 6.20443 88.6035 6.84896 88.9941 7.32422C89.3848 7.79948 89.9837 8.03711 90.791 8.03711C91.3509 8.03711 91.8327 7.92318 92.2363 7.69531C92.6465 7.46094 92.9622 7.16471 93.1836 6.80664C93.4115 6.44857 93.5254 6.08398 93.5254 5.71289C93.5254 5.32878 93.4701 4.94466 93.3594 4.56055C93.2552 4.17643 93.0924 3.82487 92.8711 3.50586C92.6497 3.18685 92.3698 2.92969 92.0312 2.73438C91.6992 2.53255 91.3086 2.43164 90.8594 2.43164ZM107.305 6.80664C107.305 7.65299 107.243 8.48307 107.119 9.29688C107.002 10.1107 106.794 10.8724 106.494 11.582C106.201 12.2917 105.794 12.9199 105.273 13.4668C104.759 14.0072 104.108 14.4303 103.32 14.7363C102.533 15.0423 101.582 15.1953 100.469 15.1953C100.189 15.1953 99.8633 15.179 99.4922 15.1465C99.1276 15.1204 98.8281 15.0814 98.5938 15.0293V13.1152C98.8411 13.1868 99.1178 13.2454 99.4238 13.291C99.7363 13.3301 100.046 13.3496 100.352 13.3496C101.556 13.3496 102.493 13.125 103.164 12.6758C103.841 12.2266 104.32 11.6081 104.6 10.8203C104.886 10.0326 105.049 9.13737 105.088 8.13477H104.971C104.782 8.44727 104.544 8.73372 104.258 8.99414C103.971 9.24805 103.617 9.45312 103.193 9.60938C102.77 9.75911 102.256 9.83398 101.65 9.83398C100.83 9.83398 100.114 9.66146 99.502 9.31641C98.8965 8.97135 98.4245 8.47005 98.0859 7.8125C97.7539 7.14844 97.5879 6.35091 97.5879 5.41992C97.5879 4.41081 97.7799 3.54167 98.1641 2.8125C98.5482 2.08333 99.0918 1.52344 99.7949 1.13281C100.498 0.735677 101.325 0.537109 102.275 0.537109C102.992 0.537109 103.652 0.667318 104.258 0.927734C104.87 1.18164 105.404 1.57227 105.859 2.09961C106.315 2.62044 106.67 3.27474 106.924 4.0625C107.178 4.84375 107.305 5.75846 107.305 6.80664ZM102.305 2.43164C101.582 2.43164 100.993 2.67578 100.537 3.16406C100.081 3.64583 99.8535 4.38802 99.8535 5.39062C99.8535 6.20443 100.049 6.84896 100.439 7.32422C100.83 7.79948 101.429 8.03711 102.236 8.03711C102.796 8.03711 103.278 7.92318 103.682 7.69531C104.092 7.46094 104.408 7.16471 104.629 6.80664C104.857 6.44857 104.971 6.08398 104.971 5.71289C104.971 5.32878 104.915 4.94466 104.805 4.56055C104.701 4.17643 104.538 3.82487 104.316 3.50586C104.095 3.18685 103.815 2.92969 103.477 2.73438C103.145 2.53255 102.754 2.43164 102.305 2.43164ZM110.732 15L116.338 2.73438H108.926V0.722656H118.809V2.29492L113.203 15H110.732ZM130.732 11.8652H128.799V15H126.533V11.8652H120.039V10.127L126.562 0.683594H128.799V9.96094H130.732V11.8652ZM126.533 9.96094V6.41602C126.533 6.12305 126.536 5.82682 126.543 5.52734C126.556 5.22135 126.569 4.92839 126.582 4.64844C126.595 4.36849 126.608 4.11133 126.621 3.87695C126.634 3.63607 126.644 3.4375 126.65 3.28125H126.572C126.449 3.54167 126.312 3.80859 126.162 4.08203C126.012 4.34896 125.853 4.60938 125.684 4.86328L122.168 9.96094H126.533ZM136.846 6.07422C137.764 6.07422 138.571 6.24023 139.268 6.57227C139.971 6.89779 140.518 7.37956 140.908 8.01758C141.299 8.64909 141.494 9.42383 141.494 10.3418C141.494 11.3444 141.283 12.2103 140.859 12.9395C140.436 13.6621 139.814 14.2188 138.994 14.6094C138.174 15 137.174 15.1953 135.996 15.1953C135.247 15.1953 134.548 15.1302 133.896 15C133.252 14.8698 132.695 14.6745 132.227 14.4141V12.3438C132.715 12.6172 133.301 12.8418 133.984 13.0176C134.668 13.1868 135.322 13.2715 135.947 13.2715C136.611 13.2715 137.181 13.1738 137.656 12.9785C138.132 12.7832 138.496 12.4837 138.75 12.0801C139.01 11.6764 139.141 11.1654 139.141 10.5469C139.141 9.72656 138.877 9.09505 138.35 8.65234C137.829 8.20312 137.012 7.97852 135.898 7.97852C135.508 7.97852 135.091 8.01432 134.648 8.08594C134.212 8.15104 133.848 8.22266 133.555 8.30078L132.549 7.70508L133.086 0.722656H140.508V2.74414H135.107L134.795 6.29883C135.029 6.24674 135.309 6.19792 135.635 6.15234C135.96 6.10026 136.364 6.07422 136.846 6.07422ZM148.291 6.07422C149.209 6.07422 150.016 6.24023 150.713 6.57227C151.416 6.89779 151.963 7.37956 152.354 8.01758C152.744 8.64909 152.939 9.42383 152.939 10.3418C152.939 11.3444 152.728 12.2103 152.305 12.9395C151.882 13.6621 151.26 14.2188 150.439 14.6094C149.619 15 148.62 15.1953 147.441 15.1953C146.693 15.1953 145.993 15.1302 145.342 15C144.697 14.8698 144.141 14.6745 143.672 14.4141V12.3438C144.16 12.6172 144.746 12.8418 145.43 13.0176C146.113 13.1868 146.768 13.2715 147.393 13.2715C148.057 13.2715 148.626 13.1738 149.102 12.9785C149.577 12.7832 149.941 12.4837 150.195 12.0801C150.456 11.6764 150.586 11.1654 150.586 10.5469C150.586 9.72656 150.322 9.09505 149.795 8.65234C149.274 8.20312 148.457 7.97852 147.344 7.97852C146.953 7.97852 146.536 8.01432 146.094 8.08594C145.658 8.15104 145.293 8.22266 145 8.30078L143.994 7.70508L144.531 0.722656H151.953V2.74414H146.553L146.24 6.29883C146.475 6.24674 146.755 6.19792 147.08 6.15234C147.406 6.10026 147.809 6.07422 148.291 6.07422Z" fill="#191005" fill-opacity="0.6"/>
</svg>
