<svg width="138" height="14" viewBox="0 0 138 14" fill="none" xmlns="http://www.w3.org/2000/svg">
<path d="M11.108 5.28977H8.98295C8.92235 4.94129 8.81061 4.63258 8.64773 4.36364C8.48485 4.09091 8.2822 3.85985 8.03977 3.67045C7.79735 3.48106 7.52083 3.33901 7.21023 3.24432C6.90341 3.14583 6.57197 3.09659 6.21591 3.09659C5.58333 3.09659 5.02273 3.25568 4.53409 3.57386C4.04545 3.88826 3.66288 4.35038 3.38636 4.96023C3.10985 5.56629 2.97159 6.30682 2.97159 7.18182C2.97159 8.07197 3.10985 8.82197 3.38636 9.43182C3.66667 10.0379 4.04924 10.4962 4.53409 10.8068C5.02273 11.1136 5.58144 11.267 6.21023 11.267C6.55871 11.267 6.88447 11.2216 7.1875 11.1307C7.49432 11.036 7.76894 10.8977 8.01136 10.7159C8.25758 10.5341 8.46402 10.3106 8.63068 10.0455C8.80114 9.7803 8.91856 9.47727 8.98295 9.13636L11.108 9.14773C11.0284 9.70076 10.8561 10.2197 10.5909 10.7045C10.3295 11.1894 9.98674 11.6174 9.5625 11.9886C9.13826 12.3561 8.64205 12.6439 8.07386 12.8523C7.50568 13.0568 6.875 13.1591 6.18182 13.1591C5.15909 13.1591 4.24621 12.9223 3.44318 12.4489C2.64015 11.9754 2.00758 11.2917 1.54545 10.3977C1.08333 9.50379 0.852273 8.43182 0.852273 7.18182C0.852273 5.92803 1.08523 4.85606 1.55114 3.96591C2.01705 3.07197 2.65152 2.38826 3.45455 1.91477C4.25758 1.44129 5.16667 1.20455 6.18182 1.20455C6.82955 1.20455 7.43182 1.29545 7.98864 1.47727C8.54545 1.65909 9.04167 1.92614 9.47727 2.27841C9.91288 2.62689 10.2708 3.05492 10.5511 3.5625C10.8352 4.06629 11.0208 4.64205 11.108 5.28977ZM17.2543 13.1705C16.402 13.1705 15.6634 12.983 15.0384 12.608C14.4134 12.233 13.9285 11.7083 13.5838 11.0341C13.2429 10.3598 13.0724 9.57197 13.0724 8.67045C13.0724 7.76894 13.2429 6.97917 13.5838 6.30114C13.9285 5.62311 14.4134 5.09659 15.0384 4.72159C15.6634 4.34659 16.402 4.15909 17.2543 4.15909C18.1065 4.15909 18.8452 4.34659 19.4702 4.72159C20.0952 5.09659 20.5781 5.62311 20.919 6.30114C21.2637 6.97917 21.4361 7.76894 21.4361 8.67045C21.4361 9.57197 21.2637 10.3598 20.919 11.0341C20.5781 11.7083 20.0952 12.233 19.4702 12.608C18.8452 12.983 18.1065 13.1705 17.2543 13.1705ZM17.2656 11.5227C17.7277 11.5227 18.1141 11.3958 18.4247 11.142C18.7353 10.8845 18.9664 10.5398 19.1179 10.108C19.2732 9.67614 19.3509 9.19508 19.3509 8.66477C19.3509 8.13068 19.2732 7.64773 19.1179 7.21591C18.9664 6.7803 18.7353 6.43371 18.4247 6.17614C18.1141 5.91856 17.7277 5.78977 17.2656 5.78977C16.7921 5.78977 16.3982 5.91856 16.0838 6.17614C15.7732 6.43371 15.5402 6.7803 15.3849 7.21591C15.2334 7.64773 15.1577 8.13068 15.1577 8.66477C15.1577 9.19508 15.2334 9.67614 15.3849 10.108C15.5402 10.5398 15.7732 10.8845 16.0838 11.142C16.3982 11.3958 16.7921 11.5227 17.2656 11.5227ZM25.7386 7.88636V13H23.6818V4.27273H25.6477V5.75568H25.75C25.9508 5.26705 26.2708 4.87879 26.7102 4.59091C27.1534 4.30303 27.7008 4.15909 28.3523 4.15909C28.9545 4.15909 29.4792 4.28788 29.9261 4.54545C30.3769 4.80303 30.7254 5.17614 30.9716 5.66477C31.2216 6.15341 31.3447 6.74621 31.3409 7.44318V13H29.2841V7.76136C29.2841 7.17803 29.1326 6.72159 28.8295 6.39205C28.5303 6.0625 28.1155 5.89773 27.5852 5.89773C27.2254 5.89773 26.9053 5.97727 26.625 6.13636C26.3485 6.29167 26.1307 6.51705 25.9716 6.8125C25.8163 7.10795 25.7386 7.46591 25.7386 7.88636ZM35.9886 7.88636V13H33.9318V4.27273H35.8977V5.75568H36C36.2008 5.26705 36.5208 4.87879 36.9602 4.59091C37.4034 4.30303 37.9508 4.15909 38.6023 4.15909C39.2045 4.15909 39.7292 4.28788 40.1761 4.54545C40.6269 4.80303 40.9754 5.17614 41.2216 5.66477C41.4716 6.15341 41.5947 6.74621 41.5909 7.44318V13H39.5341V7.76136C39.5341 7.17803 39.3826 6.72159 39.0795 6.39205C38.7803 6.0625 38.3655 5.89773 37.8352 5.89773C37.4754 5.89773 37.1553 5.97727 36.875 6.13636C36.5985 6.29167 36.3807 6.51705 36.2216 6.8125C36.0663 7.10795 35.9886 7.46591 35.9886 7.88636ZM48.0455 13.1705C47.1705 13.1705 46.4148 12.9886 45.7784 12.625C45.1458 12.2576 44.6591 11.7386 44.3182 11.0682C43.9773 10.3939 43.8068 9.60038 43.8068 8.6875C43.8068 7.78977 43.9773 7.00189 44.3182 6.32386C44.6629 5.64205 45.1439 5.11174 45.7614 4.73295C46.3788 4.35038 47.1042 4.15909 47.9375 4.15909C48.4754 4.15909 48.983 4.24621 49.4602 4.42045C49.9413 4.59091 50.3655 4.85606 50.733 5.21591C51.1042 5.57576 51.3958 6.03409 51.608 6.59091C51.8201 7.14394 51.9261 7.80303 51.9261 8.56818V9.19886H44.7727V7.8125H49.9545C49.9508 7.41856 49.8655 7.06818 49.6989 6.76136C49.5322 6.45076 49.2992 6.20644 49 6.02841C48.7045 5.85038 48.3598 5.76136 47.9659 5.76136C47.5455 5.76136 47.1761 5.86364 46.858 6.06818C46.5398 6.26894 46.2917 6.53409 46.1136 6.86364C45.9394 7.18939 45.8504 7.54735 45.8466 7.9375V9.14773C45.8466 9.6553 45.9394 10.0909 46.125 10.4545C46.3106 10.8144 46.5701 11.0909 46.9034 11.2841C47.2367 11.4735 47.6269 11.5682 48.0739 11.5682C48.3731 11.5682 48.6439 11.5265 48.8864 11.4432C49.1288 11.3561 49.339 11.2292 49.517 11.0625C49.6951 10.8958 49.8295 10.6894 49.9205 10.4432L51.8409 10.6591C51.7197 11.1667 51.4886 11.6098 51.1477 11.9886C50.8106 12.3636 50.3788 12.6553 49.8523 12.8636C49.3258 13.0682 48.7235 13.1705 48.0455 13.1705ZM57.973 13.1705C57.1018 13.1705 56.3537 12.9792 55.7287 12.5966C55.1075 12.214 54.6283 11.6856 54.2912 11.0114C53.9579 10.3333 53.7912 9.55303 53.7912 8.67045C53.7912 7.78409 53.9616 7.00189 54.3026 6.32386C54.6435 5.64205 55.1245 5.11174 55.7457 4.73295C56.3707 4.35038 57.1094 4.15909 57.9616 4.15909C58.67 4.15909 59.2969 4.28977 59.8423 4.55114C60.3916 4.80871 60.8291 5.17424 61.1548 5.64773C61.4806 6.11742 61.6662 6.66667 61.7116 7.29545H59.7457C59.6662 6.875 59.4768 6.52462 59.1776 6.24432C58.8821 5.96023 58.4863 5.81818 57.9901 5.81818C57.5696 5.81818 57.2003 5.93182 56.8821 6.15909C56.5639 6.38258 56.3158 6.70455 56.1378 7.125C55.9635 7.54545 55.8764 8.04924 55.8764 8.63636C55.8764 9.23106 55.9635 9.74242 56.1378 10.1705C56.312 10.5947 56.5563 10.9223 56.8707 11.1534C57.1889 11.3807 57.562 11.4943 57.9901 11.4943C58.2931 11.4943 58.5639 11.4375 58.8026 11.3239C59.045 11.2064 59.2476 11.0379 59.4105 10.8182C59.5734 10.5985 59.6851 10.3314 59.7457 10.017H61.7116C61.6624 10.6345 61.4806 11.1818 61.1662 11.6591C60.8518 12.1326 60.4238 12.5038 59.8821 12.7727C59.3404 13.0379 58.7041 13.1705 57.973 13.1705ZM68.2585 4.27273V5.86364H63.2415V4.27273H68.2585ZM64.4801 2.18182H66.5369V10.375C66.5369 10.6515 66.5786 10.8636 66.6619 11.0114C66.7491 11.1553 66.8627 11.2538 67.0028 11.3068C67.143 11.3598 67.2983 11.3864 67.4688 11.3864C67.5975 11.3864 67.715 11.3769 67.821 11.358C67.9309 11.339 68.0142 11.322 68.071 11.3068L68.4176 12.9148C68.3078 12.9527 68.1506 12.9943 67.946 13.0398C67.7453 13.0852 67.4991 13.1117 67.2074 13.1193C66.6922 13.1345 66.2282 13.0568 65.8153 12.8864C65.4025 12.7121 65.0748 12.4432 64.8324 12.0795C64.5938 11.7159 64.4763 11.2614 64.4801 10.7159V2.18182ZM77.4872 13L74.2031 1.36364H76.4702L78.5668 9.91477H78.6747L80.9134 1.36364H82.9759L85.2202 9.92045H85.3224L87.419 1.36364H89.6861L86.402 13H84.3224L81.9929 4.83523H81.902L79.5668 13H77.4872ZM91.5568 13V4.27273H93.6136V13H91.5568ZM92.5909 3.03409C92.2652 3.03409 91.9848 2.92614 91.75 2.71023C91.5152 2.49053 91.3977 2.22727 91.3977 1.92045C91.3977 1.60985 91.5152 1.34659 91.75 1.13068C91.9848 0.910984 92.2652 0.801136 92.5909 0.801136C92.9205 0.801136 93.2008 0.910984 93.4318 1.13068C93.6667 1.34659 93.7841 1.60985 93.7841 1.92045C93.7841 2.22727 93.6667 2.49053 93.4318 2.71023C93.2008 2.92614 92.9205 3.03409 92.5909 3.03409ZM100.587 4.27273V5.86364H95.5696V4.27273H100.587ZM96.8082 2.18182H98.8651V10.375C98.8651 10.6515 98.9067 10.8636 98.9901 11.0114C99.0772 11.1553 99.1908 11.2538 99.331 11.3068C99.4711 11.3598 99.6264 11.3864 99.7969 11.3864C99.9257 11.3864 100.043 11.3769 100.149 11.358C100.259 11.339 100.342 11.322 100.399 11.3068L100.746 12.9148C100.636 12.9527 100.479 12.9943 100.274 13.0398C100.073 13.0852 99.8272 13.1117 99.5355 13.1193C99.0204 13.1345 98.5563 13.0568 98.1435 12.8864C97.7306 12.7121 97.4029 12.4432 97.1605 12.0795C96.9219 11.7159 96.8045 11.2614 96.8082 10.7159V2.18182ZM105.051 7.88636V13H102.994V1.36364H105.006V5.75568H105.108C105.313 5.26326 105.629 4.875 106.057 4.59091C106.489 4.30303 107.038 4.15909 107.705 4.15909C108.311 4.15909 108.839 4.28598 109.29 4.53977C109.741 4.79356 110.089 5.16477 110.335 5.65341C110.585 6.14205 110.71 6.73864 110.71 7.44318V13H108.653V7.76136C108.653 7.17424 108.502 6.7178 108.199 6.39205C107.9 6.0625 107.479 5.89773 106.938 5.89773C106.574 5.89773 106.248 5.97727 105.96 6.13636C105.676 6.29167 105.453 6.51705 105.29 6.8125C105.131 7.10795 105.051 7.46591 105.051 7.88636ZM125.202 1.36364H127.31V8.96591C127.31 9.79924 127.113 10.5322 126.719 11.1648C126.329 11.7973 125.779 12.2917 125.071 12.6477C124.363 13 123.535 13.1761 122.588 13.1761C121.637 13.1761 120.808 13 120.099 12.6477C119.391 12.2917 118.842 11.7973 118.452 11.1648C118.062 10.5322 117.866 9.79924 117.866 8.96591V1.36364H119.974V8.78977C119.974 9.27462 120.08 9.70644 120.293 10.0852C120.509 10.464 120.812 10.7614 121.202 10.9773C121.592 11.1894 122.054 11.2955 122.588 11.2955C123.122 11.2955 123.584 11.1894 123.974 10.9773C124.368 10.7614 124.671 10.464 124.884 10.0852C125.096 9.70644 125.202 9.27462 125.202 8.78977V1.36364ZM136.908 6.57955L135.033 6.78409C134.98 6.5947 134.887 6.41667 134.754 6.25C134.625 6.08333 134.451 5.94886 134.232 5.84659C134.012 5.74432 133.743 5.69318 133.425 5.69318C132.997 5.69318 132.637 5.78598 132.345 5.97159C132.057 6.1572 131.915 6.39773 131.919 6.69318C131.915 6.94697 132.008 7.15341 132.197 7.3125C132.391 7.47159 132.709 7.60227 133.152 7.70455L134.641 8.02273C135.466 8.20076 136.08 8.48295 136.482 8.86932C136.887 9.25568 137.091 9.76136 137.095 10.3864C137.091 10.9356 136.93 11.4205 136.612 11.8409C136.298 12.2576 135.86 12.5833 135.3 12.8182C134.739 13.053 134.095 13.1705 133.368 13.1705C132.3 13.1705 131.44 12.947 130.788 12.5C130.137 12.0492 129.749 11.4223 129.624 10.6193L131.629 10.4261C131.72 10.8201 131.913 11.1174 132.209 11.3182C132.504 11.5189 132.889 11.6193 133.362 11.6193C133.851 11.6193 134.243 11.5189 134.538 11.3182C134.838 11.1174 134.987 10.8693 134.987 10.5739C134.987 10.3239 134.891 10.1174 134.697 9.95455C134.508 9.79167 134.213 9.66667 133.811 9.57955L132.322 9.26705C131.485 9.0928 130.866 8.79924 130.464 8.38636C130.063 7.9697 129.864 7.44318 129.868 6.80682C129.864 6.26894 130.01 5.80303 130.305 5.40909C130.605 5.01136 131.019 4.70455 131.55 4.48864C132.084 4.26894 132.699 4.15909 133.396 4.15909C134.419 4.15909 135.224 4.37689 135.811 4.8125C136.402 5.24811 136.768 5.83712 136.908 6.57955Z" fill="#FF9C33"/>
</svg>
