<svg width="41" height="13" viewBox="0 0 41 13" fill="none" xmlns="http://www.w3.org/2000/svg">
<path d="M9.91406 6.17969C9.91406 7.46615 9.66667 8.54167 9.17188 9.40625C8.68229 10.2656 7.97135 10.9141 7.03906 11.3516C6.10677 11.7839 4.98438 12 3.67188 12H0.4375V0.578125H4.02344C5.22135 0.578125 6.26042 0.791667 7.14062 1.21875C8.02083 1.64062 8.70312 2.26823 9.1875 3.10156C9.67188 3.92969 9.91406 4.95573 9.91406 6.17969ZM7.39844 6.24219C7.39844 5.39844 7.27344 4.70573 7.02344 4.16406C6.77865 3.61719 6.41406 3.21354 5.92969 2.95312C5.45052 2.69271 4.85677 2.5625 4.14844 2.5625H2.85938V10H3.89844C5.08073 10 5.95833 9.6849 6.53125 9.05469C7.10938 8.42448 7.39844 7.48698 7.39844 6.24219ZM19.2734 12L18.4453 9.28125H14.2812L13.4531 12H10.8438L14.875 0.53125H17.8359L21.8828 12H19.2734ZM17.8672 7.25L17.0391 4.59375C16.987 4.41667 16.9167 4.1901 16.8281 3.91406C16.7448 3.63281 16.6589 3.34896 16.5703 3.0625C16.487 2.77083 16.4193 2.51823 16.3672 2.30469C16.3151 2.51823 16.2422 2.78385 16.1484 3.10156C16.0599 3.41406 15.974 3.71094 15.8906 3.99219C15.8073 4.27344 15.7474 4.47396 15.7109 4.59375L14.8906 7.25H17.8672ZM26.8828 5.28125L29.2656 0.578125H31.875L28.0859 7.55469V12H25.6797V7.63281L21.8906 0.578125H24.5156L26.8828 5.28125ZM40.0547 8.82812C40.0547 9.50521 39.8906 10.0938 39.5625 10.5938C39.2344 11.0938 38.7552 11.4792 38.125 11.75C37.5 12.0208 36.7396 12.1562 35.8438 12.1562C35.4479 12.1562 35.0599 12.1302 34.6797 12.0781C34.3047 12.026 33.9427 11.9505 33.5938 11.8516C33.25 11.7474 32.9219 11.6198 32.6094 11.4688V9.21875C33.151 9.45833 33.7135 9.67448 34.2969 9.86719C34.8802 10.0599 35.4583 10.1562 36.0312 10.1562C36.4271 10.1562 36.7448 10.1042 36.9844 10C37.2292 9.89583 37.4062 9.7526 37.5156 9.57031C37.625 9.38802 37.6797 9.17969 37.6797 8.94531C37.6797 8.65885 37.5833 8.41406 37.3906 8.21094C37.1979 8.00781 36.9323 7.81771 36.5938 7.64062C36.2604 7.46354 35.8828 7.27344 35.4609 7.07031C35.1953 6.94531 34.9062 6.79427 34.5938 6.61719C34.2812 6.4349 33.9844 6.21354 33.7031 5.95312C33.4219 5.69271 33.1901 5.3776 33.0078 5.00781C32.8307 4.63281 32.7422 4.1849 32.7422 3.66406C32.7422 2.98177 32.8984 2.39844 33.2109 1.91406C33.5234 1.42969 33.9688 1.0599 34.5469 0.804688C35.1302 0.544271 35.8177 0.414062 36.6094 0.414062C37.2031 0.414062 37.7682 0.484375 38.3047 0.625C38.8464 0.760417 39.4115 0.958333 40 1.21875L39.2188 3.10156C38.6927 2.88802 38.2214 2.72396 37.8047 2.60938C37.388 2.48958 36.9635 2.42969 36.5312 2.42969C36.2292 2.42969 35.9714 2.47917 35.7578 2.57812C35.5443 2.67188 35.3828 2.80729 35.2734 2.98438C35.1641 3.15625 35.1094 3.35677 35.1094 3.58594C35.1094 3.85677 35.1875 4.08594 35.3438 4.27344C35.5052 4.45573 35.7448 4.63281 36.0625 4.80469C36.3854 4.97656 36.7865 5.17708 37.2656 5.40625C37.849 5.68229 38.3464 5.97135 38.7578 6.27344C39.1745 6.57031 39.4948 6.92188 39.7188 7.32812C39.9427 7.72917 40.0547 8.22917 40.0547 8.82812Z" fill="#B8B8B8"/>
</svg>
