<svg width="143" height="21" viewBox="0 0 143 21" fill="none" xmlns="http://www.w3.org/2000/svg">
<path d="M4.27344 16.1953C2.98438 16.1953 1.94922 15.7266 1.16797 14.7891C0.393229 13.8451 0.00585938 12.4551 0.00585938 10.6191C0.00585938 8.76367 0.39974 7.36068 1.1875 6.41016C1.98177 5.45964 3.02669 4.98438 4.32227 4.98438C4.86914 4.98438 5.34766 5.05924 5.75781 5.20898C6.16797 5.35221 6.51953 5.54753 6.8125 5.79492C7.11198 6.04232 7.36589 6.31901 7.57422 6.625H7.68164C7.64909 6.42318 7.61003 6.13346 7.56445 5.75586C7.52539 5.37174 7.50586 5.01693 7.50586 4.69141V0.804688H9.81055V16H8.01367L7.60352 14.5254H7.50586C7.31055 14.8379 7.06315 15.1211 6.76367 15.375C6.4707 15.6224 6.11914 15.821 5.70898 15.9707C5.30534 16.1204 4.82682 16.1953 4.27344 16.1953ZM4.91797 14.3301C5.90104 14.3301 6.5944 14.0469 6.99805 13.4805C7.40169 12.9141 7.61003 12.0645 7.62305 10.9316V10.6289C7.62305 9.41797 7.42773 8.49023 7.03711 7.8457C6.64648 7.19466 5.93359 6.86914 4.89844 6.86914C4.07161 6.86914 3.4401 7.20443 3.00391 7.875C2.57422 8.53906 2.35938 9.4668 2.35938 10.6582C2.35938 11.8496 2.57422 12.7611 3.00391 13.3926C3.4401 14.0176 4.07812 14.3301 4.91797 14.3301ZM15.3965 5.18945V16H13.1016V5.18945H15.3965ZM14.2637 1.04883C14.6152 1.04883 14.918 1.14323 15.1719 1.33203C15.4323 1.52083 15.5625 1.84635 15.5625 2.30859C15.5625 2.76432 15.4323 3.08984 15.1719 3.28516C14.918 3.47396 14.6152 3.56836 14.2637 3.56836C13.8991 3.56836 13.5898 3.47396 13.3359 3.28516C13.0885 3.08984 12.9648 2.76432 12.9648 2.30859C12.9648 1.84635 13.0885 1.52083 13.3359 1.33203C13.5898 1.14323 13.8991 1.04883 14.2637 1.04883ZM25.9238 16H17.7109V14.584L23.1699 6.95703H18.043V5.18945H25.7676V6.75195L20.416 14.2324H25.9238V16ZM43.4824 8.85156C43.4824 9.47005 43.4108 10.0788 43.2676 10.6777C43.1243 11.2702 42.9062 11.8073 42.6133 12.2891C42.3203 12.7643 41.9525 13.1452 41.5098 13.4316C41.0736 13.7181 40.556 13.8613 39.957 13.8613C39.4102 13.8613 38.9544 13.7148 38.5898 13.4219C38.2253 13.1289 37.9876 12.7676 37.877 12.3379H37.75C37.4896 12.7611 37.1283 13.1224 36.666 13.4219C36.2103 13.7148 35.6504 13.8613 34.9863 13.8613C33.8796 13.8613 33.0267 13.5163 32.4277 12.8262C31.8353 12.1296 31.5391 11.2116 31.5391 10.0723C31.5391 9.18685 31.7214 8.4056 32.0859 7.72852C32.4505 7.04492 32.9681 6.50781 33.6387 6.11719C34.3158 5.72656 35.11 5.53125 36.0215 5.53125C36.627 5.53125 37.2324 5.58659 37.8379 5.69727C38.4499 5.80143 38.9316 5.91536 39.2832 6.03906L39.0879 10.0527C39.0749 10.2415 39.0651 10.4043 39.0586 10.541C39.0586 10.6712 39.0586 10.7624 39.0586 10.8145C39.0586 11.446 39.1595 11.8691 39.3613 12.084C39.5632 12.2923 39.8008 12.3965 40.0742 12.3965C40.4388 12.3965 40.7448 12.237 40.9922 11.918C41.2461 11.5924 41.4382 11.1628 41.5684 10.6289C41.6986 10.0885 41.7637 9.49284 41.7637 8.8418C41.7637 7.66341 41.5228 6.65755 41.041 5.82422C40.5658 4.99089 39.9115 4.35612 39.0781 3.91992C38.2448 3.48372 37.2943 3.26562 36.2266 3.26562C35.1328 3.26562 34.1628 3.43815 33.3164 3.7832C32.4766 4.12826 31.7669 4.61328 31.1875 5.23828C30.6146 5.86328 30.1816 6.60547 29.8887 7.46484C29.5957 8.31771 29.4492 9.25846 29.4492 10.2871C29.4492 11.5501 29.6738 12.6243 30.123 13.5098C30.5723 14.3887 31.2331 15.056 32.1055 15.5117C32.9844 15.9674 34.0553 16.1953 35.3184 16.1953C36.1061 16.1953 36.8906 16.1107 37.6719 15.9414C38.4596 15.7656 39.1725 15.5573 39.8105 15.3164V16.8887C39.2051 17.1426 38.528 17.3477 37.7793 17.5039C37.0306 17.6602 36.2233 17.7383 35.3574 17.7383C33.7493 17.7383 32.3724 17.4453 31.2266 16.8594C30.0872 16.2734 29.2116 15.4271 28.5996 14.3203C27.9941 13.2135 27.6914 11.8887 27.6914 10.3457C27.6914 9.10872 27.8867 7.9694 28.2773 6.92773C28.6745 5.87956 29.2441 4.9681 29.9863 4.19336C30.7285 3.41211 31.6237 2.80664 32.6719 2.37695C33.7266 1.94727 34.9082 1.73242 36.2168 1.73242C37.6296 1.73242 38.8828 2.02214 39.9766 2.60156C41.0703 3.17448 41.9264 3.99154 42.5449 5.05273C43.1699 6.11393 43.4824 7.38021 43.4824 8.85156ZM33.3945 10.1113C33.3945 10.9056 33.5573 11.485 33.8828 11.8496C34.2083 12.2142 34.651 12.3965 35.2109 12.3965C35.9271 12.3965 36.4414 12.1328 36.7539 11.6055C37.0664 11.0781 37.2487 10.3848 37.3008 9.52539L37.418 7.17188C37.2487 7.1263 37.0501 7.09049 36.8223 7.06445C36.5944 7.0319 36.3503 7.01562 36.0898 7.01562C35.4388 7.01562 34.9147 7.16536 34.5176 7.46484C34.127 7.75781 33.8405 8.14193 33.6582 8.61719C33.4824 9.08594 33.3945 9.58398 33.3945 10.1113ZM49.293 20.8047C47.8281 20.8047 46.7051 20.541 45.9238 20.0137C45.1426 19.4863 44.752 18.7474 44.752 17.7969C44.752 17.1328 44.9603 16.5697 45.377 16.1074C45.7936 15.6517 46.3893 15.3359 47.1641 15.1602C46.8711 15.0299 46.6172 14.8281 46.4023 14.5547C46.194 14.2747 46.0898 13.9655 46.0898 13.627C46.0898 13.2233 46.2038 12.8783 46.4316 12.5918C46.6595 12.3053 47.0013 12.0286 47.457 11.7617C46.8906 11.5208 46.4349 11.1302 46.0898 10.5898C45.7513 10.043 45.582 9.40169 45.582 8.66602C45.582 7.88477 45.748 7.2207 46.0801 6.67383C46.4121 6.12044 46.8971 5.70052 47.5352 5.41406C48.1732 5.12109 48.9447 4.97461 49.8496 4.97461C50.0449 4.97461 50.2565 4.98763 50.4844 5.01367C50.7188 5.0332 50.9336 5.05924 51.1289 5.0918C51.3307 5.11784 51.4837 5.14714 51.5879 5.17969H55.3281V6.45898L53.4922 6.80078C53.668 7.04818 53.8079 7.33138 53.9121 7.65039C54.0163 7.96289 54.0684 8.30469 54.0684 8.67578C54.0684 9.79557 53.681 10.6777 52.9062 11.3223C52.138 11.9603 51.0768 12.2793 49.7227 12.2793C49.3971 12.2663 49.0814 12.2402 48.7754 12.2012C48.541 12.3444 48.362 12.5039 48.2383 12.6797C48.1146 12.849 48.0527 13.041 48.0527 13.2559C48.0527 13.4316 48.1146 13.5749 48.2383 13.6855C48.362 13.7897 48.5443 13.8678 48.7852 13.9199C49.0326 13.972 49.332 13.998 49.6836 13.998H51.5488C52.7337 13.998 53.6387 14.2487 54.2637 14.75C54.8887 15.2513 55.2012 15.987 55.2012 16.957C55.2012 18.1875 54.6934 19.1348 53.6777 19.7988C52.6621 20.4694 51.2005 20.8047 49.293 20.8047ZM49.3809 19.1934C50.1816 19.1934 50.8555 19.1152 51.4023 18.959C51.9492 18.8027 52.3626 18.5781 52.6426 18.2852C52.9225 17.9987 53.0625 17.6569 53.0625 17.2598C53.0625 16.9082 52.9746 16.638 52.7988 16.4492C52.623 16.2604 52.3594 16.1302 52.0078 16.0586C51.6562 15.987 51.2201 15.9512 50.6992 15.9512H49C48.5768 15.9512 48.2025 16.0163 47.877 16.1465C47.5514 16.2832 47.2975 16.4785 47.1152 16.7324C46.9395 16.9863 46.8516 17.2923 46.8516 17.6504C46.8516 18.1452 47.0697 18.526 47.5059 18.793C47.9486 19.0599 48.5736 19.1934 49.3809 19.1934ZM49.8301 10.7754C50.5007 10.7754 50.9987 10.5931 51.3242 10.2285C51.6497 9.85742 51.8125 9.33659 51.8125 8.66602C51.8125 7.93685 51.6432 7.38997 51.3047 7.02539C50.9727 6.66081 50.4779 6.47852 49.8203 6.47852C49.1758 6.47852 48.6842 6.66406 48.3457 7.03516C48.0137 7.40625 47.8477 7.95638 47.8477 8.68555C47.8477 9.3431 48.0137 9.85742 48.3457 10.2285C48.6842 10.5931 49.179 10.7754 49.8301 10.7754ZM69.5176 4.98438C70.7285 4.98438 71.64 5.29688 72.252 5.92188C72.8704 6.54688 73.1797 7.54948 73.1797 8.92969V16H70.8848V9.33984C70.8848 8.51953 70.7253 7.90104 70.4062 7.48438C70.0872 7.06771 69.6022 6.85938 68.9512 6.85938C68.0397 6.85938 67.3822 7.15234 66.9785 7.73828C66.5814 8.31771 66.3828 9.16081 66.3828 10.2676V16H64.0879V9.33984C64.0879 8.79297 64.0163 8.33724 63.873 7.97266C63.7363 7.60156 63.5247 7.32487 63.2383 7.14258C62.9518 6.95378 62.5905 6.85938 62.1543 6.85938C61.5228 6.85938 61.0182 7.0026 60.6406 7.28906C60.2695 7.57552 60.0026 7.9987 59.8398 8.55859C59.6771 9.11198 59.5957 9.79232 59.5957 10.5996V16H57.3008V5.18945H59.0879L59.4102 6.64453H59.5371C59.7585 6.26693 60.0319 5.95768 60.3574 5.7168C60.6895 5.4694 61.0573 5.28711 61.4609 5.16992C61.8646 5.04622 62.2845 4.98438 62.7207 4.98438C63.528 4.98438 64.2083 5.1276 64.7617 5.41406C65.3151 5.69401 65.7285 6.1237 66.002 6.70312H66.1777C66.5163 6.11719 66.9883 5.68424 67.5938 5.4043C68.1992 5.12435 68.8405 4.98438 69.5176 4.98438ZM80.6211 4.98438C81.9883 4.98438 83.0202 5.28711 83.7168 5.89258C84.4199 6.49805 84.7715 7.44206 84.7715 8.72461V16H83.1406L82.7012 14.4668H82.623C82.3171 14.8574 82.0013 15.1797 81.6758 15.4336C81.3503 15.6875 80.9727 15.8763 80.543 16C80.1198 16.1302 79.6022 16.1953 78.9902 16.1953C78.3457 16.1953 77.7695 16.0781 77.2617 15.8438C76.7539 15.6029 76.3535 15.2383 76.0605 14.75C75.7676 14.2617 75.6211 13.6432 75.6211 12.8945C75.6211 11.7812 76.0345 10.9447 76.8613 10.3848C77.6947 9.82487 78.9512 9.51562 80.6309 9.45703L82.5059 9.38867V8.82227C82.5059 8.07357 82.3301 7.53971 81.9785 7.2207C81.6335 6.90169 81.1452 6.74219 80.5137 6.74219C79.9733 6.74219 79.4492 6.82031 78.9414 6.97656C78.4336 7.13281 77.9388 7.32487 77.457 7.55273L76.7148 5.93164C77.2422 5.65169 77.8411 5.42383 78.5117 5.24805C79.1888 5.07227 79.8919 4.98438 80.6211 4.98438ZM82.4961 10.834L81.0996 10.8828C79.9538 10.9219 79.1497 11.1172 78.6875 11.4688C78.2253 11.8203 77.9941 12.3021 77.9941 12.9141C77.9941 13.4479 78.1536 13.8385 78.4727 14.0859C78.7917 14.3268 79.2116 14.4473 79.7324 14.4473C80.5267 14.4473 81.1842 14.2227 81.7051 13.7734C82.2324 13.3177 82.4961 12.6504 82.4961 11.7715V10.834ZM90.2793 5.18945V16H87.9844V5.18945H90.2793ZM89.1465 1.04883C89.498 1.04883 89.8008 1.14323 90.0547 1.33203C90.3151 1.52083 90.4453 1.84635 90.4453 2.30859C90.4453 2.76432 90.3151 3.08984 90.0547 3.28516C89.8008 3.47396 89.498 3.56836 89.1465 3.56836C88.7819 3.56836 88.4727 3.47396 88.2188 3.28516C87.9714 3.08984 87.8477 2.76432 87.8477 2.30859C87.8477 1.84635 87.9714 1.52083 88.2188 1.33203C88.4727 1.14323 88.7819 1.04883 89.1465 1.04883ZM95.875 16H93.5703V0.804688H95.875V16ZM98.8242 14.7891C98.8242 14.2552 98.9609 13.8809 99.2344 13.666C99.5143 13.4447 99.8529 13.334 100.25 13.334C100.647 13.334 100.986 13.4447 101.266 13.666C101.552 13.8809 101.695 14.2552 101.695 14.7891C101.695 15.3099 101.552 15.6875 101.266 15.9219C100.986 16.1497 100.647 16.2637 100.25 16.2637C99.8529 16.2637 99.5143 16.1497 99.2344 15.9219C98.9609 15.6875 98.8242 15.3099 98.8242 14.7891ZM109 16.1953C107.978 16.1953 107.092 15.9967 106.344 15.5996C105.595 15.2025 105.019 14.5938 104.615 13.7734C104.212 12.9531 104.01 11.9115 104.01 10.6484C104.01 9.33333 104.231 8.25911 104.674 7.42578C105.117 6.59245 105.729 5.97721 106.51 5.58008C107.298 5.18294 108.199 4.98438 109.215 4.98438C109.859 4.98438 110.442 5.04948 110.963 5.17969C111.49 5.30339 111.936 5.45638 112.301 5.63867L111.617 7.47461C111.22 7.31185 110.813 7.17513 110.396 7.06445C109.98 6.95378 109.579 6.89844 109.195 6.89844C108.564 6.89844 108.036 7.03841 107.613 7.31836C107.197 7.59831 106.884 8.01497 106.676 8.56836C106.474 9.12174 106.373 9.80859 106.373 10.6289C106.373 11.4232 106.477 12.0938 106.686 12.6406C106.894 13.181 107.203 13.5911 107.613 13.8711C108.023 14.1445 108.528 14.2812 109.127 14.2812C109.719 14.2812 110.25 14.2096 110.719 14.0664C111.188 13.9232 111.63 13.7376 112.047 13.5098V15.502C111.637 15.7363 111.197 15.9089 110.729 16.0195C110.26 16.1367 109.684 16.1953 109 16.1953ZM124.156 10.5703C124.156 11.4688 124.039 12.2663 123.805 12.9629C123.57 13.6595 123.229 14.2487 122.779 14.7305C122.33 15.2057 121.79 15.5703 121.158 15.8242C120.527 16.0716 119.814 16.1953 119.02 16.1953C118.277 16.1953 117.597 16.0716 116.979 15.8242C116.36 15.5703 115.823 15.2057 115.367 14.7305C114.918 14.2487 114.57 13.6595 114.322 12.9629C114.075 12.2663 113.951 11.4688 113.951 10.5703C113.951 9.37891 114.156 8.36979 114.566 7.54297C114.983 6.70964 115.576 6.07487 116.344 5.63867C117.112 5.20247 118.027 4.98438 119.088 4.98438C120.084 4.98438 120.963 5.20247 121.725 5.63867C122.486 6.07487 123.082 6.70964 123.512 7.54297C123.941 8.3763 124.156 9.38542 124.156 10.5703ZM116.314 10.5703C116.314 11.3581 116.409 12.0319 116.598 12.5918C116.793 13.1517 117.092 13.5814 117.496 13.8809C117.9 14.1738 118.421 14.3203 119.059 14.3203C119.697 14.3203 120.217 14.1738 120.621 13.8809C121.025 13.5814 121.321 13.1517 121.51 12.5918C121.699 12.0319 121.793 11.3581 121.793 10.5703C121.793 9.78255 121.699 9.11523 121.51 8.56836C121.321 8.01497 121.025 7.59505 120.621 7.30859C120.217 7.01562 119.693 6.86914 119.049 6.86914C118.098 6.86914 117.405 7.18815 116.969 7.82617C116.533 8.46419 116.314 9.37891 116.314 10.5703ZM139.01 4.98438C140.221 4.98438 141.132 5.29688 141.744 5.92188C142.363 6.54688 142.672 7.54948 142.672 8.92969V16H140.377V9.33984C140.377 8.51953 140.217 7.90104 139.898 7.48438C139.579 7.06771 139.094 6.85938 138.443 6.85938C137.532 6.85938 136.874 7.15234 136.471 7.73828C136.074 8.31771 135.875 9.16081 135.875 10.2676V16H133.58V9.33984C133.58 8.79297 133.508 8.33724 133.365 7.97266C133.229 7.60156 133.017 7.32487 132.73 7.14258C132.444 6.95378 132.083 6.85938 131.646 6.85938C131.015 6.85938 130.51 7.0026 130.133 7.28906C129.762 7.57552 129.495 7.9987 129.332 8.55859C129.169 9.11198 129.088 9.79232 129.088 10.5996V16H126.793V5.18945H128.58L128.902 6.64453H129.029C129.251 6.26693 129.524 5.95768 129.85 5.7168C130.182 5.4694 130.549 5.28711 130.953 5.16992C131.357 5.04622 131.777 4.98438 132.213 4.98438C133.02 4.98438 133.701 5.1276 134.254 5.41406C134.807 5.69401 135.221 6.1237 135.494 6.70312H135.67C136.008 6.11719 136.48 5.68424 137.086 5.4043C137.691 5.12435 138.333 4.98438 139.01 4.98438Z" fill="#191005" fill-opacity="0.6"/>
</svg>
