<svg width="175" height="168" viewBox="0 0 175 168" fill="none" xmlns="http://www.w3.org/2000/svg">
<rect x="22" width="125" height="167" rx="4" fill="#191005"/>
<rect y="90" width="175" height="78" rx="4" fill="#E8E7E6" fill-opacity="0.06"/>
<path d="M115.586 86.8447C115.586 93.1468 115.085 98.7865 114.082 103.764C113.079 108.705 111.468 112.912 109.248 116.386C107.064 119.859 104.163 122.509 100.547 124.335C96.9303 126.161 92.4902 127.074 87.2266 127.074C80.6738 127.074 75.3027 125.481 71.1133 122.294C66.9238 119.071 63.8265 114.47 61.8213 108.49C59.8519 102.475 58.8672 95.2594 58.8672 86.8447C58.8672 78.3584 59.7624 71.1074 61.5527 65.0918C63.3789 59.0404 66.3688 54.4033 70.5225 51.1807C74.6761 47.958 80.2441 46.3467 87.2266 46.3467C93.7793 46.3467 99.1325 47.958 103.286 51.1807C107.476 54.3675 110.573 58.9867 112.578 65.0381C114.583 71.0537 115.586 78.3226 115.586 86.8447ZM79.9756 86.8447C79.9756 91.9652 80.1546 96.262 80.5127 99.7354C80.9066 103.209 81.6227 105.823 82.6611 107.577C83.7354 109.296 85.2572 110.155 87.2266 110.155C89.196 110.155 90.6999 109.296 91.7383 107.577C92.7767 105.823 93.4928 103.227 93.8867 99.7891C94.2806 96.3158 94.4775 92.001 94.4775 86.8447C94.4775 81.6527 94.2806 77.32 93.8867 73.8467C93.4928 70.3734 92.7767 67.7594 91.7383 66.0049C90.6999 64.2145 89.196 63.3193 87.2266 63.3193C85.2572 63.3193 83.7354 64.2145 82.6611 66.0049C81.6227 67.7594 80.9066 70.3734 80.5127 73.8467C80.1546 77.32 79.9756 81.6527 79.9756 86.8447Z" fill="white"/>
</svg>
