<svg width="55" height="13" viewBox="0 0 55 13" fill="none" xmlns="http://www.w3.org/2000/svg">
<path d="M9.79688 12H7.38281V7.07031H2.85938V12H0.4375V0.578125H2.85938V5.05469H7.38281V0.578125H9.79688V12ZM23.0547 6.27344C23.0547 7.15365 22.9453 7.95573 22.7266 8.67969C22.5078 9.39844 22.1745 10.0182 21.7266 10.5391C21.2839 11.0599 20.7214 11.4609 20.0391 11.7422C19.3568 12.0182 18.5495 12.1562 17.6172 12.1562C16.6849 12.1562 15.8776 12.0182 15.1953 11.7422C14.513 11.4609 13.9479 11.0599 13.5 10.5391C13.0573 10.0182 12.7266 9.39583 12.5078 8.67188C12.2891 7.94792 12.1797 7.14323 12.1797 6.25781C12.1797 5.07552 12.3724 4.04688 12.7578 3.17188C13.1484 2.29167 13.7474 1.60938 14.5547 1.125C15.362 0.640625 16.388 0.398438 17.6328 0.398438C18.8724 0.398438 19.8906 0.640625 20.6875 1.125C21.4896 1.60938 22.0833 2.29167 22.4688 3.17188C22.8594 4.05208 23.0547 5.08594 23.0547 6.27344ZM14.7188 6.27344C14.7188 7.07031 14.8177 7.75781 15.0156 8.33594C15.2188 8.90885 15.5339 9.35156 15.9609 9.66406C16.388 9.97135 16.9401 10.125 17.6172 10.125C18.3047 10.125 18.862 9.97135 19.2891 9.66406C19.7161 9.35156 20.026 8.90885 20.2188 8.33594C20.4167 7.75781 20.5156 7.07031 20.5156 6.27344C20.5156 5.07552 20.2917 4.13281 19.8438 3.44531C19.3958 2.75781 18.6589 2.41406 17.6328 2.41406C16.9505 2.41406 16.3932 2.57031 15.9609 2.88281C15.5339 3.1901 15.2188 3.63281 15.0156 4.21094C14.8177 4.78385 14.7188 5.47135 14.7188 6.27344ZM34.7188 0.578125V7.96875C34.7188 8.75521 34.5443 9.46615 34.1953 10.1016C33.8516 10.7318 33.3281 11.2318 32.625 11.6016C31.9271 11.9714 31.0469 12.1562 29.9844 12.1562C28.474 12.1562 27.3229 11.7708 26.5312 11C25.7396 10.2292 25.3438 9.20833 25.3438 7.9375V0.578125H27.7578V7.57031C27.7578 8.51302 27.9505 9.17448 28.3359 9.55469C28.7214 9.9349 29.2917 10.125 30.0469 10.125C30.5781 10.125 31.0078 10.0339 31.3359 9.85156C31.6693 9.66927 31.9141 9.38802 32.0703 9.00781C32.2266 8.6276 32.3047 8.14323 32.3047 7.55469V0.578125H34.7188ZM40.8438 0.578125C41.8802 0.578125 42.7344 0.703125 43.4062 0.953125C44.0833 1.20312 44.5859 1.58073 44.9141 2.08594C45.2422 2.59115 45.4062 3.22917 45.4062 4C45.4062 4.52083 45.3073 4.97656 45.1094 5.36719C44.9115 5.75781 44.651 6.08854 44.3281 6.35938C44.0052 6.63021 43.6562 6.85156 43.2812 7.02344L46.6406 12H43.9531L41.2266 7.61719H39.9375V12H37.5156V0.578125H40.8438ZM40.6719 2.5625H39.9375V5.64844H40.7188C41.5208 5.64844 42.0938 5.51562 42.4375 5.25C42.7865 4.97917 42.9609 4.58333 42.9609 4.0625C42.9609 3.52083 42.7734 3.13542 42.3984 2.90625C42.0286 2.67708 41.4531 2.5625 40.6719 2.5625ZM54.8203 8.82812C54.8203 9.50521 54.6562 10.0938 54.3281 10.5938C54 11.0938 53.5208 11.4792 52.8906 11.75C52.2656 12.0208 51.5052 12.1562 50.6094 12.1562C50.2135 12.1562 49.8255 12.1302 49.4453 12.0781C49.0703 12.026 48.7083 11.9505 48.3594 11.8516C48.0156 11.7474 47.6875 11.6198 47.375 11.4688V9.21875C47.9167 9.45833 48.4792 9.67448 49.0625 9.86719C49.6458 10.0599 50.224 10.1562 50.7969 10.1562C51.1927 10.1562 51.5104 10.1042 51.75 10C51.9948 9.89583 52.1719 9.7526 52.2812 9.57031C52.3906 9.38802 52.4453 9.17969 52.4453 8.94531C52.4453 8.65885 52.349 8.41406 52.1562 8.21094C51.9635 8.00781 51.6979 7.81771 51.3594 7.64062C51.026 7.46354 50.6484 7.27344 50.2266 7.07031C49.9609 6.94531 49.6719 6.79427 49.3594 6.61719C49.0469 6.4349 48.75 6.21354 48.4688 5.95312C48.1875 5.69271 47.9557 5.3776 47.7734 5.00781C47.5964 4.63281 47.5078 4.1849 47.5078 3.66406C47.5078 2.98177 47.6641 2.39844 47.9766 1.91406C48.2891 1.42969 48.7344 1.0599 49.3125 0.804688C49.8958 0.544271 50.5833 0.414062 51.375 0.414062C51.9688 0.414062 52.5339 0.484375 53.0703 0.625C53.612 0.760417 54.1771 0.958333 54.7656 1.21875L53.9844 3.10156C53.4583 2.88802 52.987 2.72396 52.5703 2.60938C52.1536 2.48958 51.7292 2.42969 51.2969 2.42969C50.9948 2.42969 50.737 2.47917 50.5234 2.57812C50.3099 2.67188 50.1484 2.80729 50.0391 2.98438C49.9297 3.15625 49.875 3.35677 49.875 3.58594C49.875 3.85677 49.9531 4.08594 50.1094 4.27344C50.2708 4.45573 50.5104 4.63281 50.8281 4.80469C51.151 4.97656 51.5521 5.17708 52.0312 5.40625C52.6146 5.68229 53.112 5.97135 53.5234 6.27344C53.9401 6.57031 54.2604 6.92188 54.4844 7.32812C54.7083 7.72917 54.8203 8.22917 54.8203 8.82812Z" fill="#B8B8B8"/>
</svg>
