<svg width="114" height="25" viewBox="0 0 114 25" fill="none" xmlns="http://www.w3.org/2000/svg">
<path d="M10.5469 24L5.04688 6.07812H4.90625C4.92708 6.50521 4.95833 7.15104 5 8.01562C5.05208 8.86979 5.09896 9.78125 5.14062 10.75C5.18229 11.7188 5.20312 12.5938 5.20312 13.375V24H0.875V1.15625H7.46875L12.875 18.625H12.9688L18.7031 1.15625H25.2969V24H20.7812V13.1875C20.7812 12.4688 20.7917 11.6406 20.8125 10.7031C20.8438 9.76562 20.8802 8.875 20.9219 8.03125C20.9635 7.17708 20.9948 6.53646 21.0156 6.10938H20.875L14.9844 24H10.5469ZM45.0469 24L43.3906 18.5625H35.0625L33.4062 24H28.1875L36.25 1.0625H42.1719L50.2656 24H45.0469ZM42.2344 14.5L40.5781 9.1875C40.474 8.83333 40.3333 8.38021 40.1562 7.82812C39.9896 7.26562 39.8177 6.69792 39.6406 6.125C39.474 5.54167 39.3385 5.03646 39.2344 4.60938C39.1302 5.03646 38.9844 5.56771 38.7969 6.20312C38.6198 6.82812 38.4479 7.42188 38.2812 7.98438C38.1146 8.54688 37.9948 8.94792 37.9219 9.1875L36.2812 14.5H42.2344ZM59.8125 1.15625C61.8854 1.15625 63.5938 1.40625 64.9375 1.90625C66.2917 2.40625 67.2969 3.16146 67.9531 4.17188C68.6094 5.18229 68.9375 6.45833 68.9375 8C68.9375 9.04167 68.7396 9.95312 68.3438 10.7344C67.9479 11.5156 67.4271 12.1771 66.7812 12.7188C66.1354 13.2604 65.4375 13.7031 64.6875 14.0469L71.4062 24H66.0312L60.5781 15.2344H58V24H53.1562V1.15625H59.8125ZM59.4688 5.125H58V11.2969H59.5625C61.1667 11.2969 62.3125 11.0312 63 10.5C63.6979 9.95833 64.0469 9.16667 64.0469 8.125C64.0469 7.04167 63.6719 6.27083 62.9219 5.8125C62.1823 5.35417 61.0312 5.125 59.4688 5.125ZM83.9844 4.85938C83.0573 4.85938 82.2344 5.04167 81.5156 5.40625C80.8073 5.76042 80.2083 6.27604 79.7188 6.95312C79.2396 7.63021 78.875 8.44792 78.625 9.40625C78.375 10.3646 78.25 11.4427 78.25 12.6406C78.25 14.2552 78.4479 15.6354 78.8438 16.7812C79.25 17.9167 79.875 18.7865 80.7188 19.3906C81.5625 19.9844 82.651 20.2812 83.9844 20.2812C84.9115 20.2812 85.8385 20.1771 86.7656 19.9688C87.7031 19.7604 88.7188 19.4635 89.8125 19.0781V23.1406C88.8021 23.5573 87.8073 23.8542 86.8281 24.0312C85.849 24.2188 84.75 24.3125 83.5312 24.3125C81.1771 24.3125 79.2396 23.8281 77.7188 22.8594C76.2083 21.8802 75.0885 20.5156 74.3594 18.7656C73.6302 17.0052 73.2656 14.9531 73.2656 12.6094C73.2656 10.8802 73.5 9.29688 73.9688 7.85938C74.4375 6.42188 75.125 5.17708 76.0312 4.125C76.9375 3.07292 78.0573 2.26042 79.3906 1.6875C80.724 1.11458 82.2552 0.828125 83.9844 0.828125C85.1198 0.828125 86.2552 0.973958 87.3906 1.26562C88.5365 1.54688 89.6302 1.9375 90.6719 2.4375L89.1094 6.375C88.2552 5.96875 87.3958 5.61458 86.5312 5.3125C85.6667 5.01042 84.8177 4.85938 83.9844 4.85938ZM113.406 24H108.578V14.1406H99.5312V24H94.6875V1.15625H99.5312V10.1094H108.578V1.15625H113.406V24Z" fill="#FF9C33"/>
</svg>
