<svg width="41" height="13" viewBox="0 0 41 13" fill="none" xmlns="http://www.w3.org/2000/svg">
<path d="M5.27344 12L2.52344 3.03906H2.45312C2.46354 3.2526 2.47917 3.57552 2.5 4.00781C2.52604 4.4349 2.54948 4.89062 2.57031 5.375C2.59115 5.85938 2.60156 6.29688 2.60156 6.6875V12H0.4375V0.578125H3.73438L6.4375 9.3125H6.48438L9.35156 0.578125H12.6484V12H10.3906V6.59375C10.3906 6.23438 10.3958 5.82031 10.4062 5.35156C10.4219 4.88281 10.4401 4.4375 10.4609 4.01562C10.4818 3.58854 10.4974 3.26823 10.5078 3.05469H10.4375L7.49219 12H5.27344ZM15.5312 12V0.578125H17.9531V12H15.5312ZM30.9609 12H27.8828L22.9141 3.35938H22.8438C22.8646 3.71875 22.8828 4.08073 22.8984 4.44531C22.9141 4.8099 22.9297 5.17448 22.9453 5.53906C22.9609 5.89844 22.9766 6.26042 22.9922 6.625V12H20.8281V0.578125H23.8828L28.8438 9.13281H28.8984C28.888 8.77865 28.875 8.42708 28.8594 8.07812C28.8438 7.72917 28.8281 7.38021 28.8125 7.03125C28.8021 6.68229 28.7917 6.33333 28.7812 5.98438V0.578125H30.9609V12ZM40.5859 8.82812C40.5859 9.50521 40.4219 10.0938 40.0938 10.5938C39.7656 11.0938 39.2865 11.4792 38.6562 11.75C38.0312 12.0208 37.2708 12.1562 36.375 12.1562C35.9792 12.1562 35.5911 12.1302 35.2109 12.0781C34.8359 12.026 34.474 11.9505 34.125 11.8516C33.7812 11.7474 33.4531 11.6198 33.1406 11.4688V9.21875C33.6823 9.45833 34.2448 9.67448 34.8281 9.86719C35.4115 10.0599 35.9896 10.1562 36.5625 10.1562C36.9583 10.1562 37.276 10.1042 37.5156 10C37.7604 9.89583 37.9375 9.7526 38.0469 9.57031C38.1562 9.38802 38.2109 9.17969 38.2109 8.94531C38.2109 8.65885 38.1146 8.41406 37.9219 8.21094C37.7292 8.00781 37.4635 7.81771 37.125 7.64062C36.7917 7.46354 36.4141 7.27344 35.9922 7.07031C35.7266 6.94531 35.4375 6.79427 35.125 6.61719C34.8125 6.4349 34.5156 6.21354 34.2344 5.95312C33.9531 5.69271 33.7214 5.3776 33.5391 5.00781C33.362 4.63281 33.2734 4.1849 33.2734 3.66406C33.2734 2.98177 33.4297 2.39844 33.7422 1.91406C34.0547 1.42969 34.5 1.0599 35.0781 0.804688C35.6615 0.544271 36.349 0.414062 37.1406 0.414062C37.7344 0.414062 38.2995 0.484375 38.8359 0.625C39.3776 0.760417 39.9427 0.958333 40.5312 1.21875L39.75 3.10156C39.224 2.88802 38.7526 2.72396 38.3359 2.60938C37.9193 2.48958 37.4948 2.42969 37.0625 2.42969C36.7604 2.42969 36.5026 2.47917 36.2891 2.57812C36.0755 2.67188 35.9141 2.80729 35.8047 2.98438C35.6953 3.15625 35.6406 3.35677 35.6406 3.58594C35.6406 3.85677 35.7188 4.08594 35.875 4.27344C36.0365 4.45573 36.276 4.63281 36.5938 4.80469C36.9167 4.97656 37.3177 5.17708 37.7969 5.40625C38.3802 5.68229 38.8776 5.97135 39.2891 6.27344C39.7057 6.57031 40.026 6.92188 40.25 7.32812C40.474 7.72917 40.5859 8.22917 40.5859 8.82812Z" fill="#B8B8B8"/>
</svg>
