<svg width="102" height="103" viewBox="0 0 102 103" fill="none" xmlns="http://www.w3.org/2000/svg">
<path d="M0.746656 94.6453C0.397432 95.3965 0.723314 96.2886 1.47454 96.6378L13.7164 102.329C14.4676 102.678 15.3597 102.352 15.7089 101.601C16.0582 100.85 15.7323 99.9576 14.9811 99.6083L4.0994 94.5497L9.15801 83.6681C9.50724 82.9169 9.18136 82.0248 8.43013 81.6755C7.67891 81.3263 6.78683 81.6522 6.4376 82.4034L0.746656 94.6453ZM57.3069 21.9229L56.9269 23.374L57.3069 21.9229ZM31.5469 79.5763L32.5302 80.7091L31.5469 79.5763ZM80.6136 30.5096L81.6503 31.5937L80.6136 30.5096ZM29.8296 52.8349L31.2223 52.2779L29.8296 52.8349ZM2.10686 95.2776C2.62155 96.6865 2.62158 96.6865 2.62162 96.6865C2.62163 96.6865 2.62167 96.6865 2.6217 96.6865C2.62176 96.6865 2.62184 96.6864 2.62192 96.6864C2.62208 96.6863 2.62229 96.6863 2.62255 96.6862C2.62306 96.686 2.62374 96.6857 2.62459 96.6854C2.62631 96.6848 2.62872 96.6839 2.63182 96.6828C2.63803 96.6805 2.64699 96.6772 2.65868 96.6729C2.68204 96.6643 2.71626 96.6517 2.76093 96.6351C2.85027 96.6019 2.98142 96.5528 3.15117 96.4886C3.49065 96.3602 3.98458 96.1709 4.60714 95.926L3.50857 93.1343C2.89924 93.3741 2.41768 93.5586 2.08963 93.6827C1.92562 93.7448 1.80001 93.7917 1.71602 93.8229C1.67402 93.8385 1.64244 93.8502 1.62166 93.8578C1.61127 93.8617 1.60359 93.8645 1.59866 93.8663C1.59619 93.8672 1.59441 93.8679 1.59333 93.8683C1.59279 93.8684 1.59242 93.8686 1.59223 93.8687C1.59213 93.8687 1.59208 93.8687 1.59207 93.8687C1.59207 93.8687 1.59207 93.8687 1.59209 93.8687C1.5921 93.8687 1.59212 93.8687 1.59212 93.8687C1.59215 93.8687 1.59217 93.8687 2.10686 95.2776ZM8.52257 94.3235C9.69904 93.8243 11.0039 93.255 12.3909 92.6246L11.1496 89.8934C9.78813 90.5123 8.50668 91.0714 7.35081 91.5618L8.52257 94.3235ZM16.2205 90.8204C17.4588 90.2152 18.7267 89.5731 19.9979 88.8991L18.5926 86.2486C17.3538 86.9054 16.1155 87.5326 14.9032 88.125L16.2205 90.8204ZM23.7135 86.8343C24.9518 86.1111 26.1708 85.3601 27.3445 84.5861L25.6929 82.0816C24.571 82.8215 23.3989 83.5439 22.2005 84.2437L23.7135 86.8343ZM30.8511 82.0859C31.4329 81.6336 31.9942 81.1743 32.5302 80.7091L30.5636 78.4435C30.0724 78.87 29.5531 79.295 29.0096 79.7176L30.8511 82.0859ZM32.5302 80.7091C33.0413 80.2654 33.5613 79.8077 34.0888 79.3369L32.0912 77.0987C31.5738 77.5605 31.0641 78.0091 30.5636 78.4435L32.5302 80.7091ZM37.1556 76.5302C38.1445 75.6031 39.1498 74.6395 40.1638 73.645L38.0633 71.5032C37.0653 72.4819 36.0762 73.4299 35.1038 74.3416L37.1556 76.5302ZM43.0979 70.7042C44.0572 69.7215 45.0179 68.7162 45.9737 67.6927L43.781 65.6452C42.8409 66.652 41.8955 67.6413 40.9512 68.6086L43.0979 70.7042ZM48.7775 64.6199C49.7006 63.5839 50.613 62.5345 51.5088 61.4761L49.2188 59.538C48.3403 60.576 47.4446 61.6062 46.5376 62.6241L48.7775 64.6199ZM54.1588 58.2543C55.0351 57.1567 55.8878 56.0537 56.7104 54.95L54.3049 53.1572C53.5036 54.2325 52.6713 55.3091 51.8143 56.3827L54.1588 58.2543ZM59.1484 51.5433C59.9551 50.3653 60.7204 49.1909 61.4358 48.0257L58.8792 46.456C58.1924 47.5746 57.4546 48.7071 56.6732 49.8481L59.1484 51.5433ZM63.5363 44.3514C64.223 43.0478 64.835 41.7601 65.3582 40.4974L62.5867 39.349C62.1035 40.515 61.5322 41.719 60.882 42.9532L63.5363 44.3514ZM66.7537 36.3956C67.1455 34.8787 67.3753 33.3972 67.4013 31.9756L64.4018 31.9207C64.381 33.0616 64.1949 34.3063 63.8491 35.6454L66.7537 36.3956ZM66.6227 27.3583C66.0342 25.8805 65.1058 24.5689 63.8165 23.4649L61.8653 25.7436C62.7902 26.5356 63.4292 27.4478 63.8355 28.4682L66.6227 27.3583ZM59.8159 21.1522C59.1499 20.896 58.4404 20.6692 57.687 20.4719L56.9269 23.374C57.5822 23.5456 58.1851 23.7392 58.7386 23.9521L59.8159 21.1522ZM57.687 20.4719C56.9495 20.2787 56.2201 20.118 55.499 19.9885L54.9688 22.9413C55.6111 23.0566 56.2639 23.2003 56.9269 23.374L57.687 20.4719ZM51.0156 19.5759C49.459 19.5725 47.9562 19.7192 46.5135 20.0005L47.0876 22.945C48.3377 22.7013 49.6461 22.5729 51.009 22.5758L51.0156 19.5759ZM42.1693 21.3162C40.7556 21.907 39.4251 22.6336 38.1847 23.4734L39.8665 25.9576C40.9472 25.226 42.1024 24.5956 43.3262 24.0841L42.1693 21.3162ZM34.7019 26.3477C33.6347 27.4092 32.6671 28.5639 31.8053 29.7889L34.259 31.515C35.0234 30.4285 35.8786 29.4086 36.8175 28.4746L34.7019 26.3477ZM29.5398 33.6603C28.8918 35.0127 28.3562 36.4157 27.9402 37.8472L30.8209 38.6845C31.1912 37.4107 31.6681 36.1612 32.2453 34.9565L29.5398 33.6603ZM27.0528 42.2483C26.8815 43.7497 26.8429 45.2605 26.9462 46.7563L29.9391 46.5495C29.8488 45.2432 29.882 43.9156 30.0334 42.5883L27.0528 42.2483ZM27.7067 51.2287C27.9104 51.9611 28.1534 52.6834 28.4369 53.392L31.2223 52.2779C30.9804 51.673 30.7722 51.0545 30.597 50.4248L27.7067 51.2287ZM28.4369 53.392C28.723 54.1072 29.0481 54.7679 29.4129 55.3735L31.9828 53.8257C31.7089 53.371 31.454 52.857 31.2223 52.2779L28.4369 53.392ZM32.5682 58.6705C33.8873 59.5017 35.3629 59.9478 36.927 60.0861L37.1913 57.0977C36.0324 56.9952 35.0287 56.6751 34.1676 56.1324L32.5682 58.6705ZM41.2369 59.7933C42.5308 59.5334 43.8668 59.1326 45.2291 58.6188L44.1705 55.8118C42.9286 56.2801 41.7506 56.6301 40.6461 56.852L41.2369 59.7933ZM48.9486 56.9828C50.1081 56.4064 51.2858 55.7641 52.4745 55.0677L50.9579 52.4792C49.8202 53.1458 48.7031 53.7546 47.6132 54.2964L48.9486 56.9828ZM55.8584 52.9636C56.947 52.2501 58.0413 51.4995 59.136 50.7198L57.3957 48.2762C56.3292 49.0358 55.2669 49.7643 54.2138 50.4546L55.8584 52.9636ZM62.3271 48.3693C63.3698 47.577 64.4091 46.7645 65.4406 45.9386L63.5655 43.5968C62.5521 44.4082 61.5328 45.205 60.512 45.9807L62.3271 48.3693ZM68.4941 43.4381C69.507 42.5908 70.508 41.7365 71.4925 40.8819L69.5259 38.6164C68.5541 39.46 67.5671 40.3024 66.5693 41.137L68.4941 43.4381ZM74.4473 38.2742C75.4423 37.3821 76.4143 36.4971 77.3579 35.6268L75.3241 33.4214C74.3899 34.283 73.4284 35.1585 72.4447 36.0405L74.4473 38.2742ZM80.2281 32.9461C80.7127 32.4879 81.187 32.0367 81.6503 31.5937L79.577 29.4255C79.1176 29.8647 78.6473 30.3121 78.167 30.7661L80.2281 32.9461ZM81.6503 31.5937C82.2039 31.0643 82.7443 30.5319 83.2716 29.9975L81.1361 27.8904C80.6288 28.4045 80.1092 28.9165 79.577 29.4255L81.6503 31.5937ZM86.3692 26.6743C87.3966 25.5081 88.3648 24.342 89.2759 23.1864L86.92 21.329C86.0412 22.4437 85.1079 23.5677 84.1181 24.6912L86.3692 26.6743ZM91.9882 19.5513C92.8989 18.2612 93.7375 16.9985 94.507 15.7787L91.9697 14.1781C91.2264 15.3562 90.4166 16.5756 89.5373 17.8212L91.9882 19.5513ZM96.8285 11.8786C97.6434 10.4249 98.3454 9.07402 98.9418 7.8606L96.2494 6.53736C95.6753 7.7055 94.9983 9.0083 94.2116 10.4118L96.8285 11.8786ZM100.822 3.72261C101.103 3.04377 101.311 2.50764 101.449 2.13776C101.518 1.95281 101.57 1.80939 101.605 1.71043C101.623 1.66095 101.636 1.62258 101.646 1.59569C101.65 1.58225 101.654 1.57167 101.656 1.56401C101.658 1.56018 101.659 1.55708 101.66 1.55472C101.66 1.55353 101.66 1.55253 101.661 1.55172C101.661 1.55131 101.661 1.55095 101.661 1.55063C101.661 1.55047 101.661 1.55033 101.661 1.55019C101.661 1.55013 101.661 1.55003 101.661 1.55C101.661 1.54991 101.661 1.54982 100.24 1.06954C98.8192 0.589255 98.8193 0.589174 98.8193 0.589096C98.8193 0.589074 98.8193 0.588999 98.8193 0.588955C98.8194 0.588866 98.8194 0.588789 98.8194 0.588724C98.8195 0.588592 98.8195 0.588507 98.8195 0.588467C98.8195 0.588388 98.8195 0.588492 98.8194 0.588778C98.8192 0.58935 98.8188 0.590651 98.8181 0.592676C98.8167 0.596726 98.8143 0.60367 98.8109 0.613462C98.8041 0.633046 98.7933 0.664022 98.7784 0.706025C98.7485 0.790033 98.7023 0.918132 98.639 1.08741C98.5124 1.42599 98.3179 1.92914 98.0507 2.57356L100.822 3.72261Z" fill="#F2C94C"/>
</svg>
